<svg width="18" height="18" viewBox="0 0 18 18" fill="none" xmlns="http://www.w3.org/2000/svg">
<path d="M14.1981 4.30803C13.2418 3.87681 12.2169 3.55808 11.145 3.37684C11.1355 3.37501 11.1256 3.37619 11.1167 3.38022C11.1079 3.38425 11.1005 3.39094 11.0956 3.39934C10.9644 3.62995 10.8182 3.93056 10.7157 4.16804C9.57888 3.9982 8.42317 3.9982 7.28638 4.16804C7.17222 3.90485 7.04348 3.64822 6.90077 3.39934C6.89593 3.39083 6.88861 3.384 6.87979 3.37976C6.87097 3.37551 6.86106 3.37406 6.8514 3.37559C5.78018 3.55683 4.75521 3.87556 3.79836 4.30741C3.79013 4.31086 3.78315 4.31675 3.77836 4.32428C1.83342 7.18347 1.30031 9.97204 1.56217 12.7256C1.5629 12.7323 1.565 12.7389 1.56833 12.7448C1.57166 12.7507 1.57616 12.7559 1.58155 12.76C2.71676 13.5864 3.98294 14.216 5.32706 14.6224C5.33643 14.6252 5.34646 14.6252 5.35582 14.6223C5.36519 14.6194 5.37346 14.6138 5.37956 14.6061C5.6688 14.2193 5.92511 13.8089 6.14579 13.3793C6.14885 13.3734 6.15062 13.367 6.15097 13.3604C6.15132 13.3537 6.15024 13.3471 6.14781 13.341C6.14538 13.3348 6.14165 13.3292 6.13688 13.3246C6.13212 13.32 6.12641 13.3165 6.12017 13.3143C5.71643 13.1623 5.32524 12.9788 4.9502 12.7656C4.94346 12.7618 4.93778 12.7563 4.93367 12.7497C4.92957 12.7431 4.92716 12.7356 4.92666 12.7279C4.92616 12.7201 4.9276 12.7124 4.93083 12.7053C4.93407 12.6983 4.93901 12.6922 4.9452 12.6875C5.02395 12.6294 5.1027 12.5687 5.17769 12.5081C5.18444 12.5027 5.19258 12.4992 5.20118 12.4981C5.20979 12.497 5.21853 12.4983 5.22644 12.5019C7.68075 13.6043 10.3388 13.6043 12.7644 12.5019C12.7723 12.4981 12.7811 12.4966 12.7898 12.4976C12.7986 12.4986 12.8068 12.502 12.8137 12.5075C12.8887 12.5687 12.9668 12.6294 13.0462 12.6875C13.0525 12.6921 13.0575 12.6981 13.0608 12.7051C13.0642 12.7121 13.0657 12.7198 13.0653 12.7275C13.065 12.7353 13.0627 12.7428 13.0587 12.7495C13.0547 12.7561 13.0491 12.7616 13.0425 12.7656C12.6687 12.9806 12.28 13.1625 11.8719 13.3137C11.8656 13.316 11.8599 13.3196 11.8551 13.3242C11.8504 13.3289 11.8466 13.3345 11.8442 13.3407C11.8418 13.3469 11.8407 13.3536 11.8411 13.3602C11.8414 13.3669 11.8432 13.3734 11.8463 13.3793C12.0712 13.8087 12.3287 14.2174 12.6119 14.6055C12.6177 14.6134 12.6259 14.6194 12.6353 14.6225C12.6447 14.6257 12.6549 14.6258 12.6644 14.623C14.0108 14.2178 15.279 13.5879 16.4155 12.76C16.421 12.7561 16.4257 12.7511 16.4291 12.7453C16.4326 12.7394 16.4348 12.733 16.4355 12.7262C16.748 9.54269 15.9118 6.77662 14.2174 4.32553C14.2133 4.31757 14.2064 4.31136 14.1981 4.30803ZM6.51266 11.0488C5.77393 11.0488 5.16457 10.3808 5.16457 9.56144C5.16457 8.74149 5.76205 8.07403 6.51266 8.07403C7.26888 8.07403 7.87262 8.74712 7.86074 9.56144C7.86074 10.3814 7.26326 11.0488 6.51266 11.0488V11.0488ZM11.4969 11.0488C10.7575 11.0488 10.1488 10.3808 10.1488 9.56144C10.1488 8.74149 10.7457 8.07403 11.4969 8.07403C12.2531 8.07403 12.8568 8.74712 12.845 9.56144C12.845 10.3814 12.2537 11.0488 11.4969 11.0488V11.0488Z" fill="#EA23B3"/>
</svg>