<svg width="18" height="18" viewBox="0 0 18 18" fill="none" xmlns="http://www.w3.org/2000/svg">
<path d="M8.99798 6.49894C7.62083 6.49894 6.49697 7.62282 6.49697 9C6.49697 10.3772 7.62083 11.5011 8.99798 11.5011C10.3751 11.5011 11.499 10.3772 11.499 9C11.499 7.62282 10.3751 6.49894 8.99798 6.49894ZM16.4992 9C16.4992 7.9643 16.5085 6.93798 16.4504 5.90416C16.3922 4.70335 16.1183 3.63763 15.2402 2.75953C14.3603 1.87956 13.2964 1.60751 12.0956 1.54934C11.06 1.49118 10.0337 1.50056 8.99986 1.50056C7.96418 1.50056 6.93788 1.49118 5.90408 1.54934C4.70329 1.60751 3.63759 1.88144 2.75951 2.75953C1.87956 3.6395 1.6075 4.70335 1.54934 5.90416C1.49118 6.93986 1.50056 7.96618 1.50056 9C1.50056 10.0338 1.49118 11.062 1.54934 12.0958C1.6075 13.2967 1.88143 14.3624 2.75951 15.2405C3.63946 16.1204 4.70329 16.3925 5.90408 16.4507C6.93976 16.5088 7.96606 16.4994 8.99986 16.4994C10.0355 16.4994 11.0618 16.5088 12.0956 16.4507C13.2964 16.3925 14.3621 16.1186 15.2402 15.2405C16.1202 14.3605 16.3922 13.2967 16.4504 12.0958C16.5104 11.062 16.4992 10.0357 16.4992 9V9ZM8.99798 12.8482C6.86846 12.8482 5.14983 11.1296 5.14983 9C5.14983 6.87044 6.86846 5.15177 8.99798 5.15177C11.1275 5.15177 12.8461 6.87044 12.8461 9C12.8461 11.1296 11.1275 12.8482 8.99798 12.8482ZM13.0037 5.8929C12.5065 5.8929 12.105 5.49138 12.105 4.99417C12.105 4.49696 12.5065 4.09544 13.0037 4.09544C13.5009 4.09544 13.9025 4.49696 13.9025 4.99417C13.9026 5.11223 13.8795 5.22917 13.8343 5.33827C13.7892 5.44738 13.723 5.54651 13.6396 5.63C13.5561 5.71348 13.4569 5.77968 13.3478 5.82479C13.2387 5.8699 13.1218 5.89305 13.0037 5.8929V5.8929Z" fill="#EA23B3"/>
</svg>