<svg width="18" height="18" viewBox="0 0 18 18" fill="none" xmlns="http://www.w3.org/2000/svg">
<path fill-rule="evenodd" clip-rule="evenodd" d="M1.5 2.75318C1.5 2.42082 1.63203 2.10207 1.86705 1.86705C2.10207 1.63203 2.42082 1.5 2.75318 1.5H15.2455C15.4102 1.49973 15.5733 1.53195 15.7255 1.59482C15.8778 1.65769 16.0161 1.74996 16.1327 1.86637C16.2492 1.98277 16.3416 2.12102 16.4047 2.27319C16.4677 2.42536 16.5001 2.58847 16.5 2.75318V15.2455C16.5002 15.4102 16.4679 15.5734 16.4049 15.7256C16.342 15.8778 16.2497 16.0162 16.1332 16.1327C16.0167 16.2492 15.8784 16.3417 15.7262 16.4047C15.574 16.4677 15.4109 16.5001 15.2461 16.5H2.75318C2.58855 16.5 2.42554 16.4676 2.27345 16.4045C2.12136 16.3415 1.98319 16.2492 1.86681 16.1327C1.75043 16.0163 1.65814 15.878 1.5952 15.7259C1.53226 15.5738 1.49991 15.4108 1.5 15.2461V2.75318ZM7.43727 7.21909H9.46841V8.23909C9.76159 7.65273 10.5116 7.125 11.6386 7.125C13.7993 7.125 14.3114 8.29296 14.3114 10.4359V14.4055H12.1248V10.9241C12.1248 9.70364 11.8316 9.015 11.087 9.015C10.0541 9.015 9.62455 9.7575 9.62455 10.9241V14.4055H7.43727V7.21909ZM3.68727 14.312H5.87455V7.125H3.68727V14.3114V14.312ZM6.1875 4.78091C6.19162 4.96819 6.1583 5.1544 6.08948 5.32862C6.02066 5.50285 5.91774 5.66157 5.78675 5.79548C5.65576 5.92938 5.49934 6.03578 5.32667 6.10841C5.15401 6.18105 4.96857 6.21847 4.78125 6.21847C4.59393 6.21847 4.40849 6.18105 4.23583 6.10841C4.06316 6.03578 3.90674 5.92938 3.77575 5.79548C3.64476 5.66157 3.54184 5.50285 3.47302 5.32862C3.4042 5.1544 3.37088 4.96819 3.375 4.78091C3.38309 4.41331 3.53481 4.0635 3.79765 3.80638C4.06049 3.54926 4.41356 3.40529 4.78125 3.40529C5.14894 3.40529 5.50201 3.54926 5.76485 3.80638C6.02769 4.0635 6.17941 4.41331 6.1875 4.78091V4.78091Z" fill="#EA23B3"/>
</svg>