<svg width="18" height="18" viewBox="0 0 18 18" fill="none" xmlns="http://www.w3.org/2000/svg">
<path d="M14.0692 4.49308C13.9641 4.4381 13.8617 4.37783 13.7626 4.3125C13.4744 4.11983 13.2101 3.89282 12.9755 3.63636C12.3878 2.95673 12.1683 2.26729 12.088 1.78504H12.0908C12.0236 1.38398 12.0513 1.125 12.0562 1.125H9.38065V11.5841C9.38065 11.7241 9.38065 11.8634 9.37511 12.0006C9.37511 12.0174 9.37304 12.0328 9.37234 12.0517C9.37234 12.0587 9.37234 12.0671 9.37027 12.0748V12.0811C9.34217 12.4563 9.22331 12.8187 9.02413 13.1365C8.82496 13.4543 8.55159 13.7178 8.22806 13.9037C7.89054 14.0979 7.50879 14.1997 7.12047 14.1991C5.87443 14.1991 4.86375 13.1716 4.86375 11.9026C4.86375 10.6329 5.87443 9.6054 7.12047 9.6054C7.35653 9.6054 7.5912 9.6432 7.81548 9.71739L7.81895 6.96245C7.13779 6.8736 6.4458 6.92848 5.78668 7.12364C5.12755 7.31881 4.5156 7.65001 3.98945 8.09635C3.52831 8.50129 3.1406 8.98449 2.84378 9.52421C2.73094 9.72089 2.30452 10.5125 2.25329 11.7962C2.22076 12.5241 2.43743 13.2801 2.54058 13.5915V13.5985C2.60496 13.7819 2.85693 14.4091 3.26674 14.9375C3.59722 15.3617 3.98768 15.7343 4.42556 16.0434V16.0364L4.43179 16.0434C5.72629 16.9323 7.1627 16.8742 7.1627 16.8742C7.41121 16.8637 8.24398 16.8742 9.18959 16.4214C10.2383 15.9188 10.8351 15.1706 10.8351 15.1706C11.2166 14.7234 11.52 14.2138 11.7322 13.6636C11.9745 13.0197 12.0548 12.2484 12.0548 11.9404V6.39061C12.0873 6.4102 12.52 6.69928 12.52 6.69928C12.52 6.69928 13.143 7.10314 14.1142 7.36562C14.8106 7.5525 15.75 7.59239 15.75 7.59239V4.90675C15.4212 4.94314 14.7532 4.83815 14.0685 4.49378L14.0692 4.49308Z" fill="#EA23B3"/>
</svg>