<svg width="18" height="18" viewBox="0 0 18 18" fill="none" xmlns="http://www.w3.org/2000/svg">
<path d="M16.875 4.13738C16.3096 4.39296 15.7022 4.56564 15.0637 4.64369C15.7225 4.24154 16.2154 3.6086 16.4504 2.86297C15.8314 3.23804 15.154 3.50204 14.4475 3.64351C13.9724 3.12605 13.3431 2.78307 12.6574 2.66782C11.9716 2.55257 11.2677 2.67149 10.655 3.00613C10.0423 3.34076 9.55503 3.87239 9.26886 4.51847C8.98269 5.16454 8.91362 5.88892 9.07239 6.57914C7.81812 6.5149 6.59112 6.18235 5.471 5.60306C4.35088 5.02378 3.36269 4.21071 2.57055 3.21663C2.29969 3.69324 2.14395 4.24583 2.14395 4.83434C2.14365 5.36413 2.27155 5.88581 2.5163 6.35308C2.76104 6.82036 3.11507 7.21879 3.54698 7.51302C3.04608 7.49676 2.55624 7.3587 2.11822 7.11032V7.15176C2.11817 7.89482 2.37014 8.61501 2.83137 9.19013C3.2926 9.76525 3.93468 10.1599 4.64867 10.3071C4.18401 10.4353 3.69685 10.4542 3.22398 10.3623C3.42543 11.0017 3.81783 11.5608 4.34624 11.9613C4.87466 12.3619 5.51264 12.5838 6.17087 12.5962C5.05349 13.4909 3.67352 13.9763 2.25297 13.9742C2.00134 13.9742 1.74991 13.9593 1.5 13.9293C2.94194 14.875 4.62046 15.3769 6.33474 15.375C12.1378 15.375 15.3101 10.4721 15.3101 6.21996C15.3101 6.08181 15.3068 5.94228 15.3007 5.80413C15.9177 5.34892 16.4504 4.78522 16.8736 4.13946L16.875 4.13738V4.13738Z" fill="#EA23B3"/>
</svg>