<svg width="18" height="18" viewBox="0 0 18 18" fill="none" xmlns="http://www.w3.org/2000/svg">
<path d="M16.5463 5.20488C16.4566 4.87097 16.2808 4.56645 16.0365 4.32182C15.7922 4.07719 15.4879 3.90102 15.1541 3.81094C13.9254 3.48047 9 3.48047 9 3.48047C9 3.48047 4.07461 3.48047 2.8459 3.80918C2.51195 3.89897 2.2075 4.07504 1.96314 4.31972C1.71877 4.5644 1.54308 4.86906 1.45371 5.20312C1.125 6.43359 1.125 9 1.125 9C1.125 9 1.125 11.5664 1.45371 12.7951C1.63477 13.4736 2.16914 14.008 2.8459 14.1891C4.07461 14.5195 9 14.5195 9 14.5195C9 14.5195 13.9254 14.5195 15.1541 14.1891C15.8326 14.008 16.3652 13.4736 16.5463 12.7951C16.875 11.5664 16.875 9 16.875 9C16.875 9 16.875 6.43359 16.5463 5.20488ZM7.43555 11.3555V6.64453L11.5137 8.98242L7.43555 11.3555Z" fill="#EA23B3"/>
</svg>